<?xml version="1.0" encoding="iso-8859-1"?>
<!-- Generator: Adobe Illustrator 19.0.0, SVG Export Plug-In . SVG Version: 6.00 Build 0)  -->
<svg version="1.1" id="Capa_1" xmlns="http://www.w3.org/2000/svg" xmlns:xlink="http://www.w3.org/1999/xlink" x="0px" y="0px"
	 viewBox="0 0 468.293 468.293" style="enable-background:new 0 0 468.293 468.293;" xml:space="preserve">
<path style="fill:#64798A;" d="M67.139,61.421v393.421c0,7.428,6.022,13.45,13.45,13.45h307.115c7.428,0,13.45-6.022,13.45-13.45
	V61.421c0-7.428-6.022-13.45-13.45-13.45H80.589C73.16,47.971,67.139,53.993,67.139,61.421z"/>
<path style="fill:#EBF0F3;" d="M374.254,74.872v279.094c-47.801,13.641-80.443,39.875-87.427,87.427H94.039V74.872
	C94.039,74.872,374.254,74.872,374.254,74.872z"/>
<polygon style="fill:#D5D6DB;" points="374.254,353.965 286.827,441.392 286.827,353.965 "/>
<path style="fill:#2F4859;" d="M267.772,33.626C267.772,15.055,252.717,0,234.146,0s-33.626,15.055-33.626,33.626h-34.815
	c-5.506,0-9.969,4.463-9.969,9.969V80.82c0,5.506,4.463,9.969,9.969,9.969h136.882c5.506,0,9.969-4.463,9.969-9.969V43.595
	c0-5.506-4.463-9.969-9.969-9.969H267.772z"/>
<path style="fill:#EBF0F3;" d="M234.146,19.616c-7.738,0-14.01,6.273-14.01,14.01s6.273,14.011,14.01,14.011
	s14.01-6.273,14.01-14.011S241.884,19.616,234.146,19.616z"/>
<circle style="fill:#44C4A1;" cx="234.146" cy="258.129" r="83.131"/>
<path style="fill:#EBF0F3;" d="M283.671,223.578c-3.52-3.52-9.224-3.52-12.744,0l-49.982,49.991l-23.578-23.578
	c-3.52-3.52-9.224-3.52-12.744,0c-3.52,3.52-3.52,9.224,0,12.744l29.95,29.95c1.69,1.69,3.978,2.64,6.372,2.64
	c2.394,0,4.682-0.951,6.372-2.64l56.354-56.363C287.191,232.802,287.191,227.099,283.671,223.578z"/>
<g>
</g>
<g>
</g>
<g>
</g>
<g>
</g>
<g>
</g>
<g>
</g>
<g>
</g>
<g>
</g>
<g>
</g>
<g>
</g>
<g>
</g>
<g>
</g>
<g>
</g>
<g>
</g>
<g>
</g>
</svg>
